<svg width="467" height="180" viewBox="0 0 467 180" fill="none" xmlns="http://www.w3.org/2000/svg">
<mask id="mask0_374_44" style="mask-type:luminance" maskUnits="userSpaceOnUse" x="2" y="2" width="176" height="176">
<path d="M177.5 2.24365H2.5V177.244H177.5V2.24365Z" fill="white"/>
</mask>
<g mask="url(#mask0_374_44)">
<path d="M72.6083 54.5655C83.3868 58.512 96.3278 50.2155 101.517 36.0369C106.704 21.8578 102.172 7.16805 91.3953 3.22406C80.6148 -0.716861 67.6748 7.57685 62.4858 21.7556C57.2988 35.9347 61.8308 50.6245 72.6083 54.5655Z" fill="#008DFF"/>
<path d="M31.654 77.179C42.9289 76.2015 51.0266 63.3895 49.745 48.5535C48.4608 33.7226 38.2794 22.4905 27.0045 23.4626C15.7307 24.4432 7.63359 37.2575 8.91634 52.091C10.2008 66.922 20.3805 78.154 31.654 77.179Z" fill="#008DFF"/>
<path d="M119.462 76.6765C129.357 82.4925 143.576 76.6515 151.224 63.6355C158.871 50.611 157.048 35.349 147.151 29.533C137.256 23.7221 123.034 29.5662 115.388 42.5821C107.741 55.6045 109.566 70.866 119.462 76.6765Z" fill="#008DFF"/>
<path d="M172.462 92.106C166.046 82.785 150.905 82.0645 138.64 90.502C126.372 98.9445 121.631 113.342 128.045 122.665C134.46 131.986 149.602 132.707 161.868 124.267C174.131 115.827 178.875 101.43 172.462 92.106Z" fill="#008DFF"/>
<path d="M106.581 93.8656C105.358 85.3986 100.167 77.6761 91.8706 73.7601C83.5756 69.8466 74.3141 70.7496 67.0021 75.1851C58.9196 80.0896 53.7496 86.4971 46.7888 89.2976C39.8288 92.0981 20.3337 83.7576 8.19584 105.799C-0.376742 121.367 7.49279 141.048 23.5637 148.631C35.7789 154.395 45.4466 153.752 52.5441 157.099C59.6406 160.446 65.2896 168.32 77.5036 174.084C93.5741 181.667 113.768 175.233 120.336 158.717C129.635 135.336 110.801 125.59 108.537 118.437C106.274 111.285 107.934 103.22 106.581 93.8656Z" fill="#008DFF"/>
</g>
<path d="M218.964 119V74.396H231.732L232.32 88.928L229.8 86.156C230.472 83.748 231.564 81.592 233.076 79.688C234.644 77.784 236.464 76.272 238.536 75.152C240.608 74.032 242.82 73.472 245.172 73.472C246.18 73.472 247.104 73.556 247.944 73.724C248.84 73.892 249.652 74.088 250.38 74.312L246.684 89.18C246.068 88.788 245.228 88.48 244.164 88.256C243.156 87.976 242.092 87.836 240.972 87.836C239.74 87.836 238.592 88.06 237.528 88.508C236.464 88.9 235.568 89.488 234.84 90.272C234.112 91.056 233.524 91.98 233.076 93.044C232.684 94.108 232.488 95.312 232.488 96.656V119H218.964ZM276.556 119.84C271.628 119.84 267.344 118.86 263.704 116.9C260.064 114.884 257.236 112.168 255.22 108.752C253.204 105.28 252.196 101.332 252.196 96.908C252.196 93.492 252.756 90.356 253.876 87.5C254.996 84.644 256.564 82.18 258.58 80.108C260.596 77.98 262.976 76.356 265.72 75.236C268.52 74.06 271.572 73.472 274.876 73.472C278.012 73.472 280.868 74.032 283.444 75.152C286.076 76.272 288.344 77.84 290.248 79.856C292.152 81.872 293.608 84.252 294.616 86.996C295.624 89.74 296.072 92.736 295.96 95.984L295.876 99.596H260.344L258.412 92.036H284.956L283.528 93.632V91.952C283.416 90.552 282.968 89.32 282.184 88.256C281.456 87.136 280.476 86.268 279.244 85.652C278.012 85.036 276.612 84.728 275.044 84.728C272.86 84.728 270.984 85.176 269.416 86.072C267.904 86.912 266.756 88.172 265.972 89.852C265.188 91.476 264.796 93.492 264.796 95.9C264.796 98.364 265.3 100.52 266.308 102.368C267.372 104.16 268.884 105.56 270.844 106.568C272.86 107.576 275.24 108.08 277.984 108.08C279.888 108.08 281.568 107.8 283.024 107.24C284.536 106.68 286.16 105.728 287.896 104.384L294.196 113.288C292.46 114.8 290.612 116.032 288.652 116.984C286.692 117.936 284.676 118.636 282.604 119.084C280.588 119.588 278.572 119.84 276.556 119.84ZM305.951 119V60.2H331.319C335.015 60.2 338.291 61.04 341.147 62.72C344.059 64.4 346.355 66.696 348.035 69.608C349.771 72.52 350.639 75.796 350.639 79.436C350.639 83.244 349.771 86.66 348.035 89.684C346.355 92.652 344.059 95.004 341.147 96.74C338.291 98.476 335.015 99.344 331.319 99.344H320.231V119H305.951ZM319.979 86.828H329.303C330.535 86.828 331.655 86.52 332.663 85.904C333.671 85.288 334.483 84.448 335.099 83.384C335.715 82.32 336.023 81.088 336.023 79.688C336.023 78.232 335.715 77 335.099 75.992C334.483 74.984 333.671 74.2 332.663 73.64C331.655 73.08 330.535 72.8 329.303 72.8H319.979V86.828ZM361.568 119V60.2H402.56V72.38H375.428V106.82H403.4V119H361.568ZM368.288 94.892V83.3H398.78V94.892H368.288ZM428.476 119V72.8H411.004V60.2H460.648V72.8H442.756V119H428.476Z" fill="#008DFF"/>
</svg>
