<svg width="39" height="39" viewBox="0 0 39 39" fill="none" xmlns="http://www.w3.org/2000/svg">
<path d="M12.7708 4.9071C12.7708 4.25127 12.2392 3.7196 11.5833 3.7196C10.9275 3.7196 10.3958 4.25127 10.3958 4.9071V7.4076C8.11689 7.59008 6.6208 8.03794 5.52165 9.13709C4.4225 10.2362 3.97464 11.7323 3.79216 14.0113H35.2078C35.0254 11.7323 34.5774 10.2362 33.4783 9.13709C32.3791 8.03794 30.8831 7.59008 28.6042 7.4076V4.9071C28.6042 4.25127 28.0725 3.7196 27.4167 3.7196C26.7608 3.7196 26.2292 4.25127 26.2292 4.9071V7.30253C25.1758 7.2821 23.9951 7.2821 22.6667 7.2821H16.3333C15.0049 7.2821 13.8242 7.2821 12.7708 7.30253V4.9071Z" fill="black"/>
<path fill-rule="evenodd" clip-rule="evenodd" d="M3.66667 19.9487C3.66667 18.6203 3.66667 17.4396 3.6871 16.3862H35.3129C35.3333 17.4396 35.3333 18.6203 35.3333 19.9487V23.1154C35.3333 29.0865 35.3333 32.0722 33.4783 33.927C31.6234 35.7821 28.6377 35.7821 22.6667 35.7821H16.3333C10.3622 35.7821 7.37666 35.7821 5.52166 33.927C3.66667 32.0722 3.66667 29.0865 3.66667 23.1154V19.9487ZM27.4167 23.1154C28.2911 23.1154 29 22.4065 29 21.5321C29 20.6576 28.2911 19.9487 27.4167 19.9487C26.5422 19.9487 25.8333 20.6576 25.8333 21.5321C25.8333 22.4065 26.5422 23.1154 27.4167 23.1154ZM27.4167 29.4487C28.2911 29.4487 29 28.7399 29 27.8654C29 26.9909 28.2911 26.2821 27.4167 26.2821C26.5422 26.2821 25.8333 26.9909 25.8333 27.8654C25.8333 28.7399 26.5422 29.4487 27.4167 29.4487ZM21.0833 21.5321C21.0833 22.4065 20.3745 23.1154 19.5 23.1154C18.6255 23.1154 17.9167 22.4065 17.9167 21.5321C17.9167 20.6576 18.6255 19.9487 19.5 19.9487C20.3745 19.9487 21.0833 20.6576 21.0833 21.5321ZM21.0833 27.8654C21.0833 28.7399 20.3745 29.4487 19.5 29.4487C18.6255 29.4487 17.9167 28.7399 17.9167 27.8654C17.9167 26.9909 18.6255 26.2821 19.5 26.2821C20.3745 26.2821 21.0833 26.9909 21.0833 27.8654ZM11.5833 23.1154C12.4578 23.1154 13.1667 22.4065 13.1667 21.5321C13.1667 20.6576 12.4578 19.9487 11.5833 19.9487C10.7089 19.9487 10 20.6576 10 21.5321C10 22.4065 10.7089 23.1154 11.5833 23.1154ZM11.5833 29.4487C12.4578 29.4487 13.1667 28.7399 13.1667 27.8654C13.1667 26.9909 12.4578 26.2821 11.5833 26.2821C10.7089 26.2821 10 26.9909 10 27.8654C10 28.7399 10.7089 29.4487 11.5833 29.4487Z" fill="black"/>
</svg>
