<svg width="44" height="42" viewBox="0 0 44 42" fill="none" xmlns="http://www.w3.org/2000/svg">
<path fill-rule="evenodd" clip-rule="evenodd" d="M7.66667 8.72864V33.1688C7.66667 36.0613 10.0731 38.406 13.0417 38.406H30.9583C33.9269 38.406 36.3333 36.0613 36.3333 33.1688V15.7115C36.3333 12.8191 33.9269 10.4744 30.9583 10.4744H9.45833C8.46883 10.4744 7.66667 9.69277 7.66667 8.72864ZM13.4896 20.9487C13.4896 20.2256 14.0912 19.6394 14.8333 19.6394H29.1667C29.9088 19.6394 30.5104 20.2256 30.5104 20.9487C30.5104 21.6718 29.9088 22.258 29.1667 22.258H14.8333C14.0912 22.258 13.4896 21.6718 13.4896 20.9487ZM13.4896 27.0588C13.4896 26.3357 14.0912 25.7495 14.8333 25.7495H24.6875C25.4296 25.7495 26.0312 26.3357 26.0312 27.0588C26.0312 27.7818 25.4296 28.3681 24.6875 28.3681H14.8333C14.0912 28.3681 13.4896 27.7818 13.4896 27.0588Z" fill="black"/>
<path d="M8.39908 7.13492C9.02344 7.40775 9.45833 8.01868 9.45833 8.7286H30.9583C31.577 8.7286 32.1774 8.80497 32.75 8.94859V7.51713C32.75 5.39241 30.8186 3.7603 28.66 4.06077L9.31427 6.75357C8.96942 6.80158 8.65694 6.93703 8.39908 7.13492Z" fill="black"/>
</svg>
