<svg width="28" height="8" viewBox="0 0 28 8" fill="none" xmlns="http://www.w3.org/2000/svg">
<g clip-path="url(#clip0_313_1174)">
<path d="M3.33333 0.666664C5.17428 0.666664 6.66667 2.15906 6.66667 4C6.66667 5.84093 5.17428 7.33333 3.33333 7.33333C1.49239 7.33333 0 5.84093 0 4C0 2.15906 1.49239 0.666664 3.33333 0.666664Z" fill="black"/>
<path d="M14 0.666664C15.8409 0.666664 17.3333 2.15906 17.3333 4C17.3333 5.84093 15.8409 7.33333 14 7.33333C12.1591 7.33333 10.6667 5.84093 10.6667 4C10.6667 2.15906 12.1591 0.666664 14 0.666664Z" fill="black"/>
<path d="M28 4C28 2.15906 26.5076 0.666664 24.6667 0.666664C22.8257 0.666664 21.3333 2.15906 21.3333 4C21.3333 5.84093 22.8257 7.33333 24.6667 7.33333C26.5076 7.33333 28 5.84093 28 4Z" fill="black"/>
</g>
<defs>
<clipPath id="clip0_313_1174">
<rect width="28" height="8" fill="white"/>
</clipPath>
</defs>
</svg>
