<svg width="32" height="32" viewBox="0 0 32 32" fill="none" xmlns="http://www.w3.org/2000/svg">
<path fill-rule="evenodd" clip-rule="evenodd" d="M16.0003 10.6667C13.0548 10.6667 10.667 13.0545 10.667 16C10.667 18.9455 13.0548 21.3333 16.0003 21.3333C18.9459 21.3333 21.3336 18.9455 21.3336 16C21.3336 13.0545 18.9459 10.6667 16.0003 10.6667ZM13.3336 16C13.3336 14.5272 14.5276 13.3333 16.0003 13.3333C17.4731 13.3333 18.6669 14.5272 18.6669 16C18.6669 17.4728 17.4731 18.6667 16.0003 18.6667C14.5276 18.6667 13.3336 17.4728 13.3336 16Z" fill="black"/>
<path fill-rule="evenodd" clip-rule="evenodd" d="M15.0489 0.666656C13.1811 0.666656 11.5281 1.95659 11.1623 3.80806L11.0569 4.34162C10.8065 5.6085 9.41594 6.44078 8.06015 5.98416L7.531 5.80595C5.76328 5.2106 3.78498 5.90623 2.82448 7.5191L1.87323 9.11646C0.903642 10.7446 1.27247 12.8065 2.71903 14.0189L3.14286 14.3741C4.17252 15.2372 4.17252 16.7628 3.14286 17.6259L2.71903 17.9811C1.27247 19.1935 0.903642 21.2553 1.87323 22.8835L2.82444 24.4808C3.78496 26.0937 5.76334 26.7893 7.53108 26.194L8.06008 26.0157C9.41588 25.5591 10.8065 26.3913 11.0569 27.6583L11.1623 28.1919C11.5281 30.0433 13.1811 31.3333 15.0489 31.3333H16.9515C18.8195 31.3333 20.4724 30.0433 20.8383 28.1917L20.9436 27.6584C21.1939 26.3915 22.5845 25.5591 23.9404 26.0157L24.4695 26.194C26.2372 26.7893 28.2156 26.0937 29.1761 24.4808L30.1273 22.8836C31.0969 21.2555 30.728 19.1935 29.2815 17.9811L28.8576 17.6259C27.8279 16.7629 27.8279 15.2371 28.8576 14.3741L29.2815 14.0189C30.728 12.8065 31.0969 10.7446 30.1273 9.11642L29.1761 7.51908C28.2156 5.90623 26.2373 5.21059 24.4696 5.80591L23.9403 5.98418C22.5845 6.44078 21.1939 5.60844 20.9436 4.34155L20.8383 3.8082C20.4724 1.95667 18.8195 0.666656 16.9515 0.666656H15.0489ZM13.7784 4.32499C13.8865 3.77778 14.3977 3.33332 15.0489 3.33332H16.9515C17.6028 3.33332 18.114 3.7778 18.2221 4.32503L18.3275 4.85838C18.9055 7.78414 21.9879 9.45555 24.7913 8.51136L25.3207 8.33311C25.9327 8.12702 26.5859 8.38126 26.8849 8.88351L27.8361 10.4808C28.1261 10.9678 28.0277 11.5903 27.5685 11.9751L27.1448 12.3303C24.8433 14.2591 24.8433 17.7409 27.1448 19.6697L27.5685 20.0248C28.0277 20.4097 28.1261 21.0321 27.8361 21.5192L26.8849 23.1164C26.5859 23.6187 25.9327 23.8729 25.3207 23.6668L24.7915 23.4885C21.9879 22.5443 18.9055 24.2157 18.3275 27.1416L18.2221 27.6749C18.114 28.2221 17.6028 28.6667 16.9515 28.6667H15.0489C14.3977 28.6667 13.8865 28.2223 13.7784 27.6749L13.6729 27.1413C13.0948 24.2156 10.0124 22.5443 7.20887 23.4887L6.67987 23.6668C6.0679 23.8729 5.41472 23.6187 5.11562 23.1164L4.1644 21.5191C3.8744 21.0321 3.97279 20.4097 4.43198 20.0248L4.8558 19.6696C7.1571 17.7408 7.15708 14.2592 4.8558 12.3304L4.43198 11.9751C3.97279 11.5903 3.8744 10.9679 4.1644 10.4809L5.11566 8.88354C5.41475 8.38127 6.06791 8.12703 6.67987 8.33314L7.20902 8.51135C10.0125 9.45554 13.0948 7.78424 13.6729 4.85855L13.7784 4.32499Z" fill="black"/>
</svg>
