<svg width="36" height="36" viewBox="0 0 36 36" fill="none" xmlns="http://www.w3.org/2000/svg">
<g clip-path="url(#clip0_226_794)">
<path d="M14.5216 10.9131C16.6773 11.7024 19.2655 10.0431 20.3034 7.20738C21.3407 4.37156 20.4344 1.43361 18.279 0.644812C16.1229 -0.143372 13.5349 1.51537 12.4971 4.35112C11.4597 7.18694 12.3661 10.1249 14.5216 10.9131Z" fill="black"/>
<path d="M6.33079 15.4358C8.58576 15.2403 10.2053 12.6779 9.94898 9.7107C9.69215 6.74452 7.65586 4.4981 5.40089 4.69251C3.14613 4.88863 1.5267 7.4515 1.78325 10.4182C2.04014 13.3844 4.07609 15.6308 6.33079 15.4358Z" fill="black"/>
<path d="M23.8923 15.3353C25.8714 16.4985 28.7152 15.3303 30.2447 12.7271C31.7741 10.1222 31.4096 7.06981 29.4302 5.90661C27.4511 4.74443 24.6067 5.91324 23.0775 8.51643C21.5482 11.1209 21.9132 14.1732 23.8923 15.3353Z" fill="black"/>
<path d="M34.4923 18.4212C33.2091 16.557 30.1809 16.4129 27.7279 18.1004C25.2743 19.7889 24.3262 22.6683 25.609 24.533C26.8919 26.3972 29.9204 26.5414 32.3735 24.8534C34.8262 23.1654 35.7749 20.286 34.4923 18.4212Z" fill="black"/>
<path d="M21.3162 18.7731C21.0715 17.0797 20.0334 15.5352 18.3741 14.752C16.7151 13.9693 14.8628 14.1499 13.4004 15.037C11.7839 16.0179 10.7499 17.2994 9.35774 17.8595C7.96574 18.4196 4.06672 16.7515 1.63914 21.1598C-0.0753772 24.2734 1.49853 28.2095 4.71272 29.7262C7.15575 30.879 9.08929 30.7503 10.5088 31.4198C11.9281 32.0892 13.0579 33.664 15.5007 34.8167C18.7148 36.3334 22.7536 35.0465 24.0672 31.7434C25.927 27.0672 22.1601 25.1179 21.7073 23.6873C21.2548 22.2569 21.5868 20.6439 21.3162 18.7731Z" fill="black"/>
</g>
<defs>
<clipPath id="clip0_226_794">
<rect width="35" height="35" fill="white" transform="translate(0.5 0.44873)"/>
</clipPath>
</defs>
</svg>
