<svg width="25" height="25" viewBox="0 0 25 25" fill="none" xmlns="http://www.w3.org/2000/svg">
<path d="M21.7174 9.07612C23.3171 7.47642 23.3171 4.8828 21.7174 3.28312C20.1177 1.68342 17.5241 1.68342 15.9244 3.28312L15.0004 4.20712C15.013 4.24533 15.0262 4.28405 15.0398 4.32329C15.3784 5.29949 16.0175 6.57919 17.2196 7.78128C18.4217 8.98338 19.7014 9.6224 20.6776 9.96107C20.7167 9.97463 20.7552 9.98769 20.7932 10.0003L21.7174 9.07612Z" fill="black"/>
<path d="M15.0402 4.16666L15.0004 4.20644C15.013 4.24465 15.0261 4.28339 15.0398 4.32263C15.3784 5.29881 16.0175 6.57851 17.2196 7.78061C18.4216 8.98271 19.7013 9.62172 20.6776 9.9604C20.7162 9.97383 20.7545 9.98679 20.7923 9.99929L11.8751 18.9164C11.2739 19.5176 10.9732 19.8182 10.6419 20.0768C10.2508 20.3818 9.82778 20.6432 9.38017 20.8566C9.00071 21.0374 8.59738 21.1718 7.79079 21.4406L3.53731 22.8585C3.14037 22.9908 2.70275 22.8875 2.40689 22.5917C2.11102 22.2957 2.00772 21.8581 2.14003 21.4612L3.55785 17.2077C3.82673 16.4011 3.96116 15.9978 4.142 15.6183C4.35533 15.1707 4.61678 14.7477 4.92175 14.3567C5.18026 14.0253 5.48086 13.7247 6.082 13.1235L15.0402 4.16666Z" fill="black"/>
</svg>
