<!DOCTYPE svg PUBLIC "-//W3C//DTD SVG 1.1//EN" "http://www.w3.org/Graphics/SVG/1.1/DTD/svg11.dtd">
<!-- Uploaded to: SVG Repo, www.svgrepo.com, Transformed by: SVG Repo Mixer Tools -->
<svg fill="#000000" width="800px" height="800px" viewBox="0 0 512 512" id="_x30_1" version="1.1" xml:space="preserve" xmlns="http://www.w3.org/2000/svg" xmlns:xlink="http://www.w3.org/1999/xlink">
<g id="SVGRepo_bgCarrier" stroke-width="0"/>
<g id="SVGRepo_tracerCarrier" stroke-linecap="round" stroke-linejoin="round"/>
<g id="SVGRepo_iconCarrier">
<path d="M411.564,64.437L411.564,64.437c-85.915-85.916-225.212-85.916-311.127,0l0,0c-85.915,85.916-85.915,225.213,0,311.128 l122.907,122.908C232.004,507.134,243.751,512,256,512c12.249,0,23.996-4.866,32.657-13.527l122.907-122.908 C497.479,289.65,497.479,150.353,411.564,64.437z M256,300c-44.183,0-80-35.817-80-80s35.817-80,80-80s80,35.817,80,80 S300.183,300,256,300z"/>
</g>
</svg>