<svg width="14" height="14" viewBox="0 0 14 14" fill="none" xmlns="http://www.w3.org/2000/svg">
<g clip-path="url(#clip0_89_2652)">
<path fill-rule="evenodd" clip-rule="evenodd" d="M12.25 5.25H8.75V1.75C8.75 0.783125 7.96644 0 7 0C6.03356 0 5.25 0.783125 5.25 1.75V5.25H1.75C0.783562 5.25 0 6.03312 0 7C0 7.96688 0.783562 8.75 1.75 8.75H5.25V12.25C5.25 13.2169 6.03356 14 7 14C7.96644 14 8.75 13.2169 8.75 12.25V8.75H12.25C13.2164 8.75 14 7.96688 14 7C14 6.03312 13.2164 5.25 12.25 5.25Z" fill="black"/>
<path fill-rule="evenodd" clip-rule="evenodd" d="M12.25 5.25H8.75V1.75C8.75 0.783125 7.96644 0 7 0C6.03356 0 5.25 0.783125 5.25 1.75V5.25H1.75C0.783562 5.25 0 6.03312 0 7C0 7.96688 0.783562 8.75 1.75 8.75H5.25V12.25C5.25 13.2169 6.03356 14 7 14C7.96644 14 8.75 13.2169 8.75 12.25V8.75H12.25C13.2164 8.75 14 7.96688 14 7C14 6.03312 13.2164 5.25 12.25 5.25Z" fill="black"/>
</g>
<defs>
<clipPath id="clip0_89_2652">
<rect width="14" height="14" fill="white"/>
</clipPath>
</defs>
</svg>
