<svg width="42" height="42" viewBox="0 0 42 42" fill="none" xmlns="http://www.w3.org/2000/svg">
<path d="M21 3.86536C16.5242 3.86536 12.8854 7.50411 12.8854 11.9799C12.8854 16.3704 16.3192 19.9237 20.795 20.0774C20.9317 20.0604 21.0683 20.0604 21.1708 20.0774C21.205 20.0774 21.2221 20.0774 21.2563 20.0774C21.2733 20.0774 21.2733 20.0774 21.2904 20.0774C25.6638 19.9237 29.0975 16.3704 29.1146 11.9799C29.1146 7.50411 25.4758 3.86536 21 3.86536Z" fill="black"/>
<path d="M29.6799 24.6215C24.9136 21.444 17.1408 21.444 12.3404 24.6215C10.1708 26.0736 8.97494 28.0382 8.97494 30.1394C8.97494 32.2407 10.1708 34.1882 12.3233 35.6232C14.7149 37.229 17.8582 38.0319 21.0015 38.0319C24.1449 38.0319 27.2882 37.229 29.6799 35.6232C31.8324 34.1711 33.0282 32.2236 33.0282 30.1053C33.0111 28.004 31.8324 26.0565 29.6799 24.6215Z" fill="black"/>
</svg>
