<!DOCTYPE svg PUBLIC "-//W3C//DTD SVG 1.1//EN" "http://www.w3.org/Graphics/SVG/1.1/DTD/svg11.dtd">
<!-- Uploaded to: SVG Repo, www.svgrepo.com, Transformed by: SVG Repo Mixer Tools -->
<svg width="800px" height="800px" viewBox="0 0 16 16" xmlns="http://www.w3.org/2000/svg" fill="#000000">
<g id="SVGRepo_bgCarrier" stroke-width="0"/>
<g id="SVGRepo_tracerCarrier" stroke-linecap="round" stroke-linejoin="round"/>
<g id="SVGRepo_iconCarrier"> <path fill="#000000" fill-rule="evenodd" d="M8,16 C3.58172,16 0,12.4183 0,8 C0,3.58172 3.58172,0 8,0 C12.4183,0 16,3.58172 16,8 C16,12.4183 12.4183,16 8,16 Z M4.4325,6.19122 C4.4325,5.7729 4.57483,5.34907 4.8595,4.91974 C5.14417,4.49041 5.5595,4.13484 6.1055,3.85303 C6.6515,3.57121 7.28848,3.43033 8.01648,3.43033 C8.69315,3.43033 9.2905,3.54811 9.8085,3.78369 C10.3265,4.01927 10.7267,4.33961 11.009,4.74472 C11.2913,5.14983 11.4325,5.59017 11.4325,6.06573 C11.4325,6.44002 11.352,6.76805 11.191,7.04987 C11.03,7.33168 10.8387,7.57497 10.617,7.77972 C10.3953,7.98448 9.9975,8.32904 9.42349,8.81342 C9.26483,8.94992 9.13766,9.06989 9.04199,9.17337 C8.94633,9.27685 8.87516,9.37153 8.82849,9.4574 C8.4428,10.3468 6.77018,10.2464 7.0925,9.00165 C7.21383,8.73084 7.37483,8.49306 7.5755,8.2883 C7.77617,8.08354 8.04681,7.84026 8.38748,7.55844 C8.68615,7.31185 8.902,7.12583 9.035,7.00034 C9.168,6.87484 9.28,6.73502 9.371,6.5809 C9.462,6.42678 9.50748,6.25946 9.50748,6.07892 C9.50748,5.72665 9.36867,5.42944 9.091,5.18726 C8.81334,4.94507 8.45515,4.82397 8.01648,4.82397 C7.50314,4.82397 7.12514,4.94616 6.88248,5.19055 C6.63981,5.43494 6.43448,5.79491 6.26648,6.27048 C6.10781,6.76806 5.80683,7.01685 5.36349,7.01685 C5.10216,7.01685 4.88166,6.92988 4.702,6.75595 C4.52233,6.58202 4.4325,6.39378 4.4325,6.19122 Z M8,13 C7.44771,13 7,12.5523 7,12 C7,11.4477 7.44771,11 8,11 C8.55229,11 9,11.4477 9,12 C9,12.5523 8.55229,13 8,13 Z"/> </g>
</svg>