<svg width="24" height="25" viewBox="0 0 24 25" fill="none" xmlns="http://www.w3.org/2000/svg">
<path fill-rule="evenodd" clip-rule="evenodd" d="M14.1212 4.16666C14.1212 1.86548 15.8849 0 18.0606 0C20.2362 0 22 1.86548 22 4.16666C22 6.46785 20.2362 8.33334 18.0606 8.33334C16.962 8.33334 15.9692 7.85745 15.2554 7.09184L9.802 11.0369C9.85235 11.3031 9.87882 11.5781 9.87882 11.859C9.87882 12.4152 9.77529 12.947 9.58775 13.433L15.5674 17.6073C16.2461 17.0201 17.1145 16.6666 18.0606 16.6666C20.2362 16.6666 22 18.5321 22 20.8334C22 23.1345 20.2362 25 18.0606 25C15.8849 25 14.1212 23.1345 14.1212 20.8334C14.1212 20.2306 14.2426 19.6569 14.4608 19.1389L8.52949 14.9984C7.8376 15.6372 6.93129 16.0256 5.93939 16.0256C3.76373 16.0256 2 14.1601 2 11.859C2 9.55779 3.76373 7.69231 5.93939 7.69231C7.19047 7.69231 8.30415 8.30906 9.02524 9.26898L14.3105 5.44553C14.1875 5.04199 14.1212 4.612 14.1212 4.16666Z" fill="black"/>
</svg>
